<?xml version="1.0" encoding="utf-8"?>
<!-- Generator: Adobe Illustrator 25.4.1, SVG Export Plug-In . SVG Version: 6.00 Build 0)  -->
<svg version="1.1" id="Layer_1" shape-rendering="crispEdges"
	 xmlns="http://www.w3.org/2000/svg" xmlns:xlink="http://www.w3.org/1999/xlink" x="0px" y="0px" viewBox="0 0 9 9"
	 style="enable-background:new 0 0 9 9;" xml:space="preserve">
<g>
	<polygon points="6,1 5,1 5,2 6,2 7,2 7,1 	"/>
	<polygon points="7,2 7,3 7,4 7,5 7,6 7,7 8,7 8,6 8,5 8,4 8,3 8,2 	"/>
	<polygon points="2,3 3,3 3,2 4,2 4,1 3,1 2,1 1,1 1,2 1,3 1,4 2,4 	"/>
	<rect x="3" y="3" width="1" height="1"/>
	<rect x="4" y="4" width="1" height="1"/>
	<polygon points="2,5 1,5 1,6 1,7 2,7 2,6 	"/>
	<rect x="5" y="5" width="1" height="1"/>
	<polygon points="5,7 4,7 3,7 2,7 2,8 3,8 4,8 5,8 6,8 7,8 7,7 6,7 	"/>
</g>
</svg>
