<?xml version="1.0" encoding="utf-8"?>
<!-- Generator: Adobe Illustrator 25.4.1, SVG Export Plug-In . SVG Version: 6.00 Build 0)  -->
<svg version="1.1" id="Layer_1" shape-rendering="crispEdges"
	 xmlns="http://www.w3.org/2000/svg" xmlns:xlink="http://www.w3.org/1999/xlink" x="0px" y="0px" viewBox="0 0 9 9"
	 style="enable-background:new 0 0 9 9;" xml:space="preserve">
<g>
	<polygon points="4,2 5,2 6,2 6,3 7,3 7,2 8,2 8,1 7,1 6,1 5,1 4,1 3,1 2,1 1,1 1,2 2,2 2,3 3,3 3,2 	"/>
	<polygon points="6,4 6,3 5,3 4,3 3,3 3,4 4,4 4,5 3,5 3,6 4,6 4,7 3,7 3,6 2,6 2,7 1,7 1,8 2,8 3,8 4,8 5,8 6,8 7,8 8,8 8,7 7,7 
		7,6 6,6 6,5 5,5 5,4 	"/>
</g>
</svg>
