<?xml version="1.0" encoding="utf-8"?>
<!-- Generator: Adobe Illustrator 25.4.1, SVG Export Plug-In . SVG Version: 6.00 Build 0)  -->
<svg version="1.1" id="Layer_1" shape-rendering="crispEdges"
	 xmlns="http://www.w3.org/2000/svg" xmlns:xlink="http://www.w3.org/1999/xlink" x="0px" y="0px" viewBox="0 0 9 9"
	 style="enable-background:new 0 0 9 9;" xml:space="preserve">
<g>
	<polygon points="2,1 1,1 1,2 2,2 3,2 3,1 	"/>
	<polygon points="8,2 8,1 7,1 6,1 6,2 7,2 	"/>
	<path d="M6,2H5v1H4V2H3v1v1H2v1h1v1H2v1h1v1h1h1h1V7h1V6H6V5h1V4H6V3V2z M5,7H4V6h1V7z"/>
	<rect x="1" y="3" width="1" height="1"/>
	<rect x="7" y="3" width="1" height="1"/>
	<rect x="1" y="5" width="1" height="1"/>
	<rect x="7" y="5" width="1" height="1"/>
	<rect x="1" y="7" width="1" height="1"/>
	<rect x="7" y="7" width="1" height="1"/>
</g>
</svg>
