<?xml version="1.0" encoding="utf-8"?>
<!-- Generator: Adobe Illustrator 25.4.1, SVG Export Plug-In . SVG Version: 6.00 Build 0)  -->
<svg version="1.1" id="Layer_1" shape-rendering="crispEdges"
	 xmlns="http://www.w3.org/2000/svg" xmlns:xlink="http://www.w3.org/1999/xlink" x="0px" y="0px" viewBox="0 0 9 9"
	 style="enable-background:new 0 0 9 9;" xml:space="preserve">
<g>
	<path d="M7,2V1H6H5H4H3H2v1H1v1v1v1v1v1h1v1h1h1h1h1h1V7h1V6V5V4V3V2H7z M5,7H4H3V6h1h1h1v1H5z M7,4v1H6H5H4H3H2V4V3h1V2h1h1h1v1h1
		V4z"/>
	<polygon points="4,4 5,4 6,4 6,3 5,3 4,3 3,3 3,4 	"/>
</g>
</svg>
